# xmcd
#
# Track frame offsets: 
#        150
#        17286
#        33653
#        52340
#        68736
#        84413
#        103229
#        116930
#        141271
#        158934
#        180172
#        194954
#        215074
#        231703
#        247211
#        262027
#        280352
#        293913
#        310092
#
# Disc length: 4335 seconds
#
# Revision: 0
# Processed by: cddbd v1.5.2PL0 Copyright (c) Steve Scherf et al.
# Submitted via: ExactAudioCopy v1.2
#
DISCID=3610ed13
DTITLE=Charlie Landsborough - Movin' On and Smile, CD1
DYEAR=2010
DGENRE=Country
TTITLE0=Not The Only Thing Blue
TTITLE1=I Wish It Was Me
TTITLE2=Leave Me
TTITLE3=Special
TTITLE4=Who Can Blame Him
TTITLE5=If Only I Had Wings
TTITLE6=Passing Through
TTITLE7=Centuries
TTITLE8=Like Rain
TTITLE9=Your Eyes
TTITLE10=Sunshine
TTITLE11=Long And Heavy Chain
TTITLE12=My Father Used To Sing
TTITLE13=It's So Good To See You
TTITLE14=Love Has Come Home To My Heart
TTITLE15=Too Good To Last
TTITLE16=Special [feat. St Ambrose RC School]
TTITLE17=Shine Your Light [Live]
TTITLE18=Who Can Blame Him [Live]
EXTD=
EXTT0=
EXTT1=
EXTT2=
EXTT3=
EXTT4=
EXTT5=
EXTT6=
EXTT7=
EXTT8=
EXTT9=
EXTT10=
EXTT11=
EXTT12=
EXTT13=
EXTT14=
EXTT15=
EXTT16=
EXTT17=
EXTT18=
PLAYORDER=
